{"title":"Battle Of The Bulge 1965 720p DiVERSiTY","uid":6891785,"size":3987843888,"categoryP":"video","categoryS":"hd___movies","magnet":"?xt=urn:btih:9a5430371ddbd05ce537dfdc244afe97dcdba7e3&amp;dn=Battle+Of+The+Bulge+1965+720p+DiVERSiTY&amp;tr=udp%3A%2F%2Ftracker.openbittorrent.com%3A80&amp;tr=udp%3A%2F%2Fopen.demonii.com%3A1337&amp;tr=udp%3A%2F%2Ftracker.coppersurfer.tk%3A6969&amp;tr=udp%3A%2F%2Fexodus.desync.com%3A6969","seeders":1,"leechers":0,"uploader":"TvTeam","files":5,"time":1324044503,"description":". \n &lt;a href=&quot;\nhttp://www.torrenting.com&quot; rel=&quot;nofollow&quot; target=&quot;_NEW&quot;&gt;\nhttp://www.torrenting.com&lt;/a&gt;          :     Once &amp; For all ;)\n\n\n               www . Torrenting . Com \n\n(((((((((((((= Enjoy No RAR releases =))))))))))))))))))))\n\n\n...................................NFO:....................................\n\n.                                                                \n @@@@@@@   @@@  @@@  @@@  @@@@@@@@  @@@@@@@   @@@@@@    @@@  @@@@@@@  @@@ @@@ \n @@@@@@@@  @@@  @@@  @@@  @@@@@@@@  @@@@@@@@  @@@@@@@   @@@  @@@@@@@  @@@ @@@ \n @@!  @@@  @@!  @@!  @@@  @@!       @@!  @@@  !@@       @@!    @@!    @@! !@@ \n !@!  @!@  !@!  !@!  @!@  !@!       !@!  @!@  !@!       !@!    !@!    !@! @!! \n @!@  !@!  !!@  @!@  !@!  @!!!:!    @!@!!@!   !!@@!!    !!@    @!!     !@!@!  \n !@!  !!!  !!!  !@!  !!!  !!!!!:    !!@!@!     !!@!!!   !!!    !!!      @!!!  \n !!:  !!!  !!:  :!:  !!:  !!:       !!: :!!        !:!  !!:    !!:      !!:   \n :!:  !:!  :!:   ::!!:!   :!:       :!:  !:!      !:!   :!:    :!:      :!:   \n :::: ::   ::    ::::     :: ::::   ::   :::  :::: ::    ::     ::       ::   \n :: :  :   :       :      : :: ::    :   : :  :: : :    :       :        :       \n\n\nGeneral\nComplete name                    : Battle Of The Buldge 1965  720p DiVERSiTY.avi\nFormat                           : AVI\nFormat/Info                      : Audio Video Interleave\nFormat profile                   : OpenDML\nFile size                        : 3.57 GiB\nDuration                         : 2h 49mn\nOverall bit rate                 : 3 009 Kbps\nEncoder                          : usagi\nSample                           : yes\nSource                           : 720p BluRay x264-WiKi\nIMDb                             : http://www.imdb.com/title/tt0058947/\n\n\nVideo\nID                               : 0\nFormat                           : MPEG-4 Visual\nFormat profile                   : Advanced Simple@L5\nFormat settings, BVOP            : 2\nFormat settings, QPel            : No\nFormat settings, GMC             : No warppoints\nFormat settings, Matrix          : Default (H.263)\nCodec ID                         : XVID\nCodec ID/Hint                    : XviD\nDuration                         : 2h 49mn\nBit rate                         : 2 359 Kbps\nWidth                            : 1 280 pixels\nHeight                           : 464 pixels\nDisplay aspect ratio             : 2.759\nFrame rate                       : 23.976 fps\nColor space                      : YUV\nChroma subsampling               : 4:2:0\nBit depth                        : 8 bits\nScan type                        : Progressive\nCompression mode                 : Lossy\nBits/(Pixel*Frame)               : 0.166\nStream size                      : 2.80 GiB (78%)\nWriting library                  : XviD 1.2.1 (UTC 2008-12-04)\n\nAudio\nID                               : 1\nFormat                           : AC-3\nFormat/Info                      : Audio Coding 3\nMode extension                   : CM (complete main)\nCodec ID                         : 2000\nDuration                         : 2h 49mn\nBit rate mode                    : Constant\nBit rate                         : 640 Kbps\nChannel(s)                       : 6 channels\nChannel positions                : Front: L C R, Side: L R, LFE\nSampling rate                    : 48.0 KHz\nBit depth                        : 16 bits\nCompression mode                 : Lossy\nStream size                      : 777 MiB (21%)\nAlignment                        : Split accross interleaves\nInterleave, duration             : 42 ms (1.00 video frame)\nInterleave, preload duration     : 500 ms\n\nPlot\nIn the winter of 1944, the Allied Armies stand ready to invade Germany \nat the coming of a New Year. To prevent this occurrence...\n\nCast\nHenry Fonda\t ...\tLt. Col. Kiley\nRobert Shaw\t ...\tCol. Hessler\nRobert Ryan\t ...\tGen. Grey\nDana Andrews\t ...\tCol. Pritchard\nG Montgomery\t ...\tSgt. Duquesne\nTy Hardin\t ...\tSchumacher\n\nLOOKING FOR : Untouched DVD-R's, DVD Screeners, Early Releases DVD's, CAM's, \nand good quality LINE audio. \nContact DiVERSiTY and let us know.  \ndiversity at hushmail dot com   \n\n\n\nGreets\nTo Everyone who makes p2p possible...... Thanks.","torrent":{"xt":"urn:btih:9a5430371ddbd05ce537dfdc244afe97dcdba7e3","amp;dn":"Battle+Of+The+Bulge+1965+720p+DiVERSiTY","amp;tr":["udp%3A%2F%2Ftracker.openbittorrent.com%3A80","udp%3A%2F%2Fopen.demonii.com%3A1337","udp%3A%2F%2Ftracker.coppersurfer.tk%3A6969","udp%3A%2F%2Fexodus.desync.com%3A6969"],"infoHash":"9a5430371ddbd05ce537dfdc244afe97dcdba7e3","infoHashBuffer":{"type":"Buffer","data":[154,84,48,55,29,219,208,92,229,55,223,220,36,74,254,151,220,219,167,227]},"announce":[],"urlList":[]}}